<svg xmlns="http://www.w3.org/2000/svg" viewBox="0 0 213.25 385.04"><defs><style>.cls-1{fill:#7889a8;}.cls-2{fill:#5b6b8d;}.cls-25,.cls-3{fill:#fff;}.cls-4{fill:#003a70;}.cls-5{fill:#ffa400;}.cls-6{fill:#e1fff1;stroke:#0ab979;stroke-miterlimit:10;stroke-width:2px;}.cls-7{fill:#58596c;}.cls-8{fill:#ff5856;}.cls-9{fill:#db4040;}.cls-10{fill:#cc3636;}.cls-11{fill:#ffdc67;}.cls-12{fill:#ffb456;}.cls-13{fill:#fc974d;}.cls-14{fill:#f47f31;}.cls-15{fill:#d7edff;}.cls-16{fill:#0399ff;}.cls-17{fill:#912626;}.cls-18{fill:#c6302b;}.cls-19{fill:#621b1c;}.cls-20{fill:#9a2928;}.cls-21{fill:#fff1d7;}.cls-22{fill:#ffb70a;}.cls-23{fill:#002b64;}.cls-24{fill:#d77758;}.cls-25{font-size:12px;font-family:OpenSans-SemiBold, Open Sans;font-weight:600;}.cls-26{fill:#5e8cda;}.cls-27{fill:#093071;}.cls-28{fill:#f5cd21;}.cls-29{fill:#fddd75;}.cls-30{font-size:14px;font-family:Tahoma;}.cls-31{letter-spacing:0.01em;}.cls-32{letter-spacing:-0.03em;}.cls-33{letter-spacing:-0.01em;}.cls-34{letter-spacing:-0.04em;}.cls-35{letter-spacing:0em;}.cls-36{letter-spacing:-0.01em;}.cls-37{letter-spacing:0em;}.cls-38{letter-spacing:0em;}.cls-39{letter-spacing:-0.01em;}.cls-40{letter-spacing:-0.02em;}.cls-41{fill:#556ae5;}</style></defs><g id="Layer_2" data-name="Layer 2"><g id="Слой_1" data-name="Слой 1"><path class="cls-1" d="M206.25,143.19a5,5,0,0,1,5,5V378a5,5,0,0,1-5,5H7a5,5,0,0,1-5-5V148.19a5,5,0,0,1,5-5H206.25m0-2H7a7,7,0,0,0-7,7V378a7,7,0,0,0,7,7H206.25a7,7,0,0,0,7-7V148.19a7,7,0,0,0-7-7Z"/><path class="cls-2" d="M2,361H211.25a0,0,0,0,1,0,0v17a5,5,0,0,1-5,5H7a5,5,0,0,1-5-5V361A0,0,0,0,1,2,361Z"/><path class="cls-3" d="M113.68,140.1h-1.35v-1.73a5.86,5.86,0,0,0-11.71,0v1.73H99.23a1.11,1.11,0,0,0-1.13,1.13v10.68A1.11,1.11,0,0,0,99.23,153h14.45a1.11,1.11,0,0,0,1.13-1.13V141.23A1.15,1.15,0,0,0,113.68,140.1Zm-6.52,7v1.44a.74.74,0,1,1-1.48,0v-1.44a1.47,1.47,0,0,1-.74-1.31,1.48,1.48,0,0,1,3,0A1.39,1.39,0,0,1,107.16,147.12Zm-3.19-7v-1.73a2.51,2.51,0,0,1,5,0v1.73Z"/><path class="cls-3" d="M98.78,137.49a1,1,0,0,0-1-1H94.27a1,1,0,0,0,0,2h3.49A1,1,0,0,0,98.78,137.49Z"/><path class="cls-3" d="M99.6,132.76a.87.87,0,0,0,.63.25,1.15,1.15,0,0,0,.81-.39,1,1,0,0,0-.14-1.44l-2.75-2.26a1,1,0,1,0-1.3,1.59Z"/><path class="cls-3" d="M106.47,130.61a1,1,0,0,0,1-1v-3.53a1,1,0,0,0-2,0v3.53A1,1,0,0,0,106.47,130.61Z"/><path class="cls-3" d="M112.68,133a1,1,0,0,0,.67-.25l2.75-2.25a1,1,0,0,0-1.31-1.59L112,131.18a1,1,0,0,0-.14,1.44A1,1,0,0,0,112.68,133Z"/><path class="cls-3" d="M118.64,136.47h-3.53a1,1,0,0,0,0,2h3.53a1,1,0,0,0,0-2Z"/><path class="cls-4" d="M113.68,140.1H99.23a1.11,1.11,0,0,0-1.13,1.13v10.68A1.11,1.11,0,0,0,99.23,153h14.45a1.11,1.11,0,0,0,1.13-1.13V141.23A1.15,1.15,0,0,0,113.68,140.1Zm-6.52,7v1.44a.74.74,0,1,1-1.48,0v-1.44a1.47,1.47,0,0,1-.74-1.31,1.48,1.48,0,0,1,3,0A1.39,1.39,0,0,1,107.16,147.12Z"/><path class="cls-5" d="M112.33,140.1H109v-1.73a2.51,2.51,0,0,0-5,0v1.73h-3.35v-1.73a5.86,5.86,0,0,1,11.71,0Z"/><path class="cls-5" d="M97.76,138.51H94.27a1,1,0,0,1,0-2h3.49a1,1,0,0,1,0,2Z"/><path class="cls-5" d="M100.23,133a.87.87,0,0,1-.63-.25l-2.75-2.25a1,1,0,1,1,1.3-1.59l2.75,2.26a1,1,0,0,1,.14,1.44A1.17,1.17,0,0,1,100.23,133Z"/><path class="cls-5" d="M106.47,130.61a1,1,0,0,1-1-1v-3.53a1,1,0,0,1,2,0v3.53A1,1,0,0,1,106.47,130.61Z"/><path class="cls-5" d="M112.68,133a1,1,0,0,1-.78-.39,1,1,0,0,1,.14-1.44l2.75-2.26a1,1,0,0,1,1.31,1.59l-2.75,2.25A1,1,0,0,1,112.68,133Z"/><path class="cls-5" d="M118.64,138.51h-3.53a1,1,0,0,1,0-2h3.53a1,1,0,0,1,0,2Z"/><rect class="cls-6" x="12" y="191.04" width="35.25" height="35" rx="5"/><path class="cls-7" d="M41,208.56A11.54,11.54,0,1,1,29.45,197,11.54,11.54,0,0,1,41,208.56Z"/><path class="cls-8" d="M40.14,204.19H18.76a11.55,11.55,0,1,0,21.38,0Z"/><path class="cls-9" d="M41,207.89c0-.28,0-.55-.07-.82h-7V204.6h6.37q-.15-.42-.33-.81h-21q-.18.39-.33.81H25v2.47H18c0,.27-.06.54-.07.82h3v2.47H18.05c0,.28.1.55.16.82H25v2.47H19.09q.21.42.45.81h1.38v1.87a11.63,11.63,0,0,0,1.56,1.42H25v1.45q.4.17.81.3v-1.75h7.32v1.75q.41-.13.81-.3v-1.45h2.5A11.63,11.63,0,0,0,38,216.33v-1.87h1.38a7.89,7.89,0,0,0,.44-.81H33.92v-2.47h6.77c.06-.27.12-.54.16-.82H38v-2.47ZM25.79,204.6h7.32v2.47H25.79Zm-4.06,5.76v-2.47H29v2.47ZM29,216.94H21.73v-2.48H29Zm-3.25-3.29v-2.47h7.32v2.47Zm11.38.81v2.48H29.86v-2.48Zm0-4.1H29.86v-2.47h7.31Z"/><path class="cls-9" d="M23.27,204.38a1.11,1.11,0,0,1,0-.19H18.76a11.56,11.56,0,0,0,4.51,14.11Z"/><path class="cls-10" d="M23.27,211.18v-.82H21.73v-2.47h1.54v-.82H18c0,.27-.06.54-.07.82h3v2.47H18.05c0,.28.1.55.16.82Z"/><path class="cls-10" d="M23.27,204.38a.87.87,0,0,1,.23-.59H18.94q-.18.39-.33.81h4.66Z"/><path class="cls-10" d="M23.27,216.94H21.73v-2.48h1.54v-.81H19.09q.21.42.45.81h1.38v1.87a11.63,11.63,0,0,0,1.56,1.42h.79Z"/><path class="cls-11" d="M36.13,207.34l-1.69.53a3.58,3.58,0,0,0,.19-4.54,5,5,0,0,1-1.08-2.66.29.29,0,0,0-.53-.13,6.92,6.92,0,0,0-.84,1.79h0a4.9,4.9,0,0,0-1.36-3.67,3.41,3.41,0,0,1-1-3,.26.26,0,0,0-.12-.29.29.29,0,0,0-.32,0,8.93,8.93,0,0,0-4.2,9.06h0c0,.26-.15.18-.21.13a7.32,7.32,0,0,1-1.13-1.2.26.26,0,0,0-.27-.11.27.27,0,0,0-.23.19,8.88,8.88,0,0,0,.64,7.44,6.26,6.26,0,0,0,5.62,2.82c4.2,0,6.5-2.54,6.93-6A.28.28,0,0,0,36.13,207.34Z"/><path class="cls-12" d="M24.86,204.7a.3.3,0,0,1,.11-.14l0,0a7.32,7.32,0,0,1-1.13-1.2.26.26,0,0,0-.27-.11.27.27,0,0,0-.23.19c-1.2,3.35-.41,7.67,2.7,9.41A8.56,8.56,0,0,1,24.86,204.7Z"/><path class="cls-12" d="M25.15,204.41a.31.31,0,0,1,0,.1.3.3,0,0,1,.23.11,7.36,7.36,0,0,0,1.13,1.21c.06,0,.21.12.21-.13h0a8.9,8.9,0,0,1,3.23-8.37,3.18,3.18,0,0,1-.15-1.68.26.26,0,0,0-.12-.29.29.29,0,0,0-.32,0,8.93,8.93,0,0,0-4.2,9.06Z"/><path class="cls-12" d="M33.34,210l-1,.31a2.15,2.15,0,0,0,.11-2.7,3,3,0,0,1-.65-1.58.17.17,0,0,0-.31-.08A4.26,4.26,0,0,0,31,207h0a2.91,2.91,0,0,0-.81-2.18,2,2,0,0,1-.58-1.78.2.2,0,0,0-.07-.18.17.17,0,0,0-.19,0,5.3,5.3,0,0,0-2.5,5.4h0c0,.15-.11.08-.13.07a4.9,4.9,0,0,1-.67-.72.17.17,0,0,0-.3.05c-.77,2.15-.16,4.91,2,5.79a7.89,7.89,0,0,0,1.85.2,9.52,9.52,0,0,0,1.34-.09,3.8,3.8,0,0,0,2.65-3.38A.17.17,0,0,0,33.34,210Z"/><path class="cls-13" d="M27,212.9a5.34,5.34,0,0,1-.38-4.43.2.2,0,0,1,.09-.09l-.05,0a4.9,4.9,0,0,1-.67-.72.17.17,0,0,0-.3.05c-.71,2-.25,4.54,1.59,5.59A3.73,3.73,0,0,1,27,212.9Z"/><path class="cls-13" d="M26.81,208.29a.56.56,0,0,1,0,.07.16.16,0,0,1,.14.07,4.46,4.46,0,0,0,.68.71s.13.09.12-.06a5.31,5.31,0,0,1,1.92-5,1.88,1.88,0,0,1-.09-1,.2.2,0,0,0-.07-.18.17.17,0,0,0-.19,0,5.3,5.3,0,0,0-2.5,5.4Z"/><path class="cls-13" d="M29.69,209.58a.49.49,0,0,0-.64,0,2.7,2.7,0,0,0,0,4.06l0,0h.56l.05,0a2.7,2.7,0,0,0,0-4.06Z"/><path class="cls-14" d="M29.22,211.68a2.68,2.68,0,0,1,.73-1.85,3.07,3.07,0,0,0-.26-.25.49.49,0,0,0-.64,0,2.7,2.7,0,0,0,0,4.06l0,0h.56l.05,0,.19-.18A2.67,2.67,0,0,1,29.22,211.68Z"/><rect class="cls-6" x="12" y="231.04" width="35.25" height="35" rx="5"/><rect class="cls-15" x="12.13" y="271.04" width="37" height="37" rx="6"/><path class="cls-16" d="M43.13,272a5,5,0,0,1,5,5v25a5,5,0,0,1-5,5h-25a5,5,0,0,1-5-5V277a5,5,0,0,1,5-5h25m0-2h-25a7,7,0,0,0-7,7v25a7,7,0,0,0,7,7h25a7,7,0,0,0,7-7V277a7,7,0,0,0-7-7Z"/><path class="cls-17" d="M41.64,296c-1.29.67-8,3.43-9.43,4.18a3.22,3.22,0,0,1-3.36.2c-1.12-.54-8.27-3.43-9.55-4-.65-.31-1-.57-1-.82v-2.45s9.3-2,10.81-2.56a3.8,3.8,0,0,1,3.3-.09c1.27.47,8.91,1.84,10.18,2.31,0,0,0,2.19,0,2.42s-.29.5-1,.85"/><path class="cls-18" d="M41.64,293.57c-1.29.67-8,3.43-9.43,4.18a3.22,3.22,0,0,1-3.36.2c-1.12-.54-8.27-3.43-9.55-4s-1.32-1-.05-1.54,8.36-3.28,9.87-3.82a3.8,3.8,0,0,1,3.3-.09c1.27.47,7.95,3.13,9.21,3.59s1.31.84,0,1.52"/><path class="cls-17" d="M41.64,292c-1.29.67-8,3.43-9.43,4.18a3.22,3.22,0,0,1-3.36.2c-1.12-.54-8.27-3.43-9.55-4-.65-.31-1-.57-1-.82v-2.45s9.3-2,10.81-2.56a3.8,3.8,0,0,1,3.3-.09c1.27.46,8.91,1.84,10.18,2.3,0,0,0,2.2,0,2.42s-.29.51-1,.86"/><path class="cls-18" d="M41.64,289.6c-1.29.67-8,3.43-9.43,4.18a3.22,3.22,0,0,1-3.36.2c-1.12-.54-8.27-3.43-9.55-4s-1.32-1-.05-1.54,8.36-3.28,9.87-3.82a3.8,3.8,0,0,1,3.3-.09c1.27.47,7.95,3.13,9.21,3.59s1.31.84,0,1.52h0"/><path class="cls-17" d="M41.64,287.92c-1.29.67-8,3.43-9.43,4.18a3.22,3.22,0,0,1-3.36.2c-1.12-.54-8.27-3.43-9.55-4-.65-.31-1-.57-1-.81V285s9.3-2,10.81-2.56a3.8,3.8,0,0,1,3.3-.09c1.27.47,8.91,1.84,10.18,2.31,0,0,0,2.19,0,2.42s-.29.5-1,.85"/><path class="cls-18" d="M41.64,285.48c-1.29.67-8,3.43-9.43,4.18a3.22,3.22,0,0,1-3.36.2c-1.12-.54-8.27-3.43-9.55-4s-1.32-1-.05-1.54,8.36-3.28,9.87-3.82a3.83,3.83,0,0,1,3.3-.09c1.27.47,7.95,3.13,9.21,3.59s1.31.84,0,1.52"/><path class="cls-3" d="M33.42,283.09l-2.09.22-.46,1.12-.76-1.25L27.7,283l1.8-.65-.54-1,1.68.66,1.59-.52-.43,1,1.62.6"/><path class="cls-3" d="M30.74,288.55l-3.89-1.62,5.58-.86-1.69,2.48"/><path class="cls-3" d="M25.34,283.72c1.65,0,3,.51,3,1.15S27,286,25.34,286s-3-.52-3-1.16,1.33-1.15,3-1.15"/><path class="cls-19" d="M35.89,283.4l3.3,1.3L35.89,286V283.4"/><path class="cls-20" d="M32.23,284.84l3.66-1.44V286l-.36.14-3.3-1.31"/><rect class="cls-21" x="12.63" y="313.04" width="37" height="37" rx="6"/><path class="cls-22" d="M43.63,314a5,5,0,0,1,5,5v25a5,5,0,0,1-5,5h-25a5,5,0,0,1-5-5V319a5,5,0,0,1,5-5h25m0-2h-25a7,7,0,0,0-7,7v25a7,7,0,0,0,7,7h25a7,7,0,0,0,7-7V319a7,7,0,0,0-7-7Z"/><path class="cls-23" d="M45.8,323c-.45,0-.3.14-1.27.38a19.54,19.54,0,0,0-3.22.61c-3.13,1.31-3.76,5.81-6.61,7.41-2.13,1.21-4.28,1.3-6.21,1.91a11.26,11.26,0,0,0-3.81,2.21c-.89.77-.92,1.44-1.85,2.41s-4,0-5.31,1.6c.43.43.62.56,1.48.44-.18.34-1.22.62-1,1.11s2.74.87,5-.51c1.06-.64,1.91-1.57,3.57-1.79a27.38,27.38,0,0,1,7.12.54,11.3,11.3,0,0,1-1.7,2.71c-.19.2.37.22,1,.1a10,10,0,0,0,2.81-1c1-.61,1.21-2.18,2.5-2.52a2.88,2.88,0,0,0,3.89.48c-1.07-.3-1.36-2.57-1-3.56s.68-2.46,1-3.71.5-3,1-3.72a8.79,8.79,0,0,1,2-2,2.9,2.9,0,0,0,1.22-2.48.58.58,0,0,0-.64-.65Z"/><path class="cls-24" d="M18.44,341a6.44,6.44,0,0,0,3.94-.57c1.11-.48,2.19-1.48,3.5-1.9,1.94-.62,4.06,0,6.12.12a9.36,9.36,0,0,0,1.5,0c.77-.47.75-2.24,1.5-2.41a8.55,8.55,0,0,1-2.1,5.42,6,6,0,0,0,4.49-3.43,12.67,12.67,0,0,0,.72-1.68c.32.24.14,1,.3,1.4,1.55-.86,2.43-2.83,3-4.81.67-2.3,1-4.63,1.39-5.31a5.65,5.65,0,0,1,1.7-1.5,2.72,2.72,0,0,0,1.41-1.91c-.73-.07-.9-.23-1-.6a2.17,2.17,0,0,1-1.07.26c-.33,0-.69,0-1.13,0-3.64.37-4.1,4.38-6.43,6.66a6.09,6.09,0,0,1-.55.46,11.44,11.44,0,0,1-2.74,1.4c-1.49.57-2.91.61-4.31,1.1a12.59,12.59,0,0,0-2.91,1.46c-.21.15-.41.29-.6.44A6,6,0,0,0,24.05,337a8.39,8.39,0,0,1-1.12,1.44c-.77.75-3.66.22-4.67.92a.75.75,0,0,0-.27.29c.56.25.93.09,1.56.16.09.61-1.31,1-1.11,1.25Z"/><path class="cls-24" d="M40.49,336.66a5.28,5.28,0,0,0,.8,2.41,2.49,2.49,0,0,1-2.21-.6C39.24,337.76,40.07,337.11,40.49,336.66Z"/><path class="cls-23" d="M41.51,325.63a.85.85,0,0,0,1.4-.8C42.11,324.77,41.65,325,41.51,325.63Z"/><path class="cls-23" d="M45.1,324.59a2.67,2.67,0,0,0-.4,1.39c0,.13-.09.22-.09,0a2.71,2.71,0,0,1,.39-1.43C45.1,324.41,45.15,324.47,45.1,324.59Z"/><path class="cls-23" d="M45,324.49a3.23,3.23,0,0,0-.61,1.5c0,.12-.12.2-.1,0a3.37,3.37,0,0,1,.62-1.55C45,324.3,45,324.37,45,324.49Z"/><path class="cls-23" d="M44.84,324.34a3.79,3.79,0,0,0-.91,1.58c0,.13-.13.2-.1,0a4.18,4.18,0,0,1,.91-1.63C44.86,324.16,44.91,324.23,44.84,324.34Z"/><path class="cls-23" d="M44.73,324.18a5.27,5.27,0,0,0-1.16,1.7c0,.11-.16.17-.1,0a5.38,5.38,0,0,1,1.17-1.73c.14-.13.17-.05.09.05Z"/><text class="cls-25" transform="translate(72.7 376.74)">CONTAINER</text><path class="cls-26" d="M40.12,247.91l-6.73-6.73-2.87,3.64,3.09,3.09a.73.73,0,0,1,0,1l-.89.9.63,1a1.11,1.11,0,0,1-.22,1.24l-7,5.4c0,1.81,0,5.54,0,5.54l14-14A.73.73,0,0,0,40.12,247.91Z"/><path class="cls-27" d="M24.48,248.76a.73.73,0,0,1,0-1l.89-.89-.61-.88a1,1,0,0,1,.2-1.31l7-5.41V233.7h0l-14,14a.75.75,0,0,0,0,1l6.74,6.74,2.87-3.64Z"/><polygon class="cls-3" points="29.16 253.21 29.16 253.21 25.91 256.47 29.16 253.21"/><path class="cls-26" d="M35.55,237.07a.27.27,0,0,1,.23.14c.07.16,0,.3-.12.42l-6.17,7.83a.43.43,0,0,0,0,.45l3.45,5a.83.83,0,0,1-.16.94l-9.91,7.61a.48.48,0,0,1-.32.14.26.26,0,0,1-.22-.14.4.4,0,0,1,.12-.42l6.17-7.83a.43.43,0,0,0,0-.45l-3.44-4.95a.72.72,0,0,1,.15-1l9.92-7.62a.5.5,0,0,1,.31-.14m0-.13a.65.65,0,0,0-.39.17l-9.92,7.62a.85.85,0,0,0-.17,1.15l3.44,5a.34.34,0,0,1,0,.31L22.33,259a.53.53,0,0,0-.13.56.38.38,0,0,0,.32.21.62.62,0,0,0,.4-.17L32.84,252a1,1,0,0,0,.18-1.12l-3.44-5a.29.29,0,0,1,0-.3l6.17-7.83a.51.51,0,0,0,.13-.55.39.39,0,0,0-.34-.22Z"/><path class="cls-28" d="M32.67,250.93c.08.12.15.57-.05.73l-9.92,7.61a.44.44,0,0,1-.16.09s0-.06.08-.17l6.17-7.83a.68.68,0,0,0,0-.74l-3.44-5S32.59,250.8,32.67,250.93Z"/><path class="cls-29" d="M32.67,250.93l-3.39-4.88a.65.65,0,0,1,0-.73l6.16-7.83c.1-.12.12-.18.09-.18s-.08,0-.16.1L25.47,245a.47.47,0,0,0-.1.65Z"/><text class="cls-30" transform="translate(55.55 172.38)">Le<tspan class="cls-31" x="14.33" y="0">t</tspan><tspan class="cls-32" x="19.14" y="0">’</tspan><tspan x="21.63" y="0">s Encrypt </tspan><tspan class="cls-33" x="83.19" y="0">S</tspan><tspan x="90.83" y="0">SL</tspan></text><text class="cls-30" transform="translate(55.93 213.71)"><tspan class="cls-34">W</tspan><tspan x="12.11" y="0">eb App Fi</tspan><tspan class="cls-35" x="70.33" y="0">r</tspan><tspan x="75.31" y="0">e</tspan><tspan class="cls-36" x="82.68" y="0">w</tspan><tspan x="92.95" y="0">a</tspan><tspan class="cls-37" x="100.3" y="0">l</tspan><tspan x="103.54" y="0">l</tspan></text><text class="cls-30" transform="translate(55.54 252.52)">L<tspan class="cls-38" x="6.97" y="0">i</tspan><tspan x="10.19" y="0">teSpeed </tspan><tspan class="cls-34" x="64.63" y="0">W</tspan><tspan x="76.74" y="0">eb </tspan><tspan class="cls-38" x="96.22" y="0">S</tspan><tspan x="104.05" y="0">er</tspan><tspan class="cls-39" x="116.46" y="0">v</tspan><tspan x="123.33" y="0">er</tspan></text><text class="cls-30" transform="translate(55.79 294.52)"><tspan class="cls-40">R</tspan><tspan x="8.44" y="0">edis Object Cache</tspan></text><text class="cls-30" transform="translate(56.2 333.16)">MariaDB</text><text/><line class="cls-1" x1="87.3" y1="0.48" x2="87.3" y2="15.48"/><rect class="cls-1" x="86.8" y="0.48" width="1" height="15"/><polyline class="cls-1" points="86.64 14 84.3 14 87.3 19 90.3 14 87.97 14"/><polygon class="cls-1" points="87.3 19.97 83.42 13.5 86.64 13.5 86.64 14.5 85.19 14.5 87.3 18.03 89.42 14.5 87.97 14.5 87.97 13.5 91.19 13.5 87.3 19.97"/><line class="cls-1" x1="107.3" x2="107.3" y2="15"/><rect class="cls-1" x="106.8" width="1" height="15"/><polyline class="cls-1" points="106.64 14 104.3 14 107.3 19 110.3 14 107.97 14"/><polygon class="cls-1" points="107.3 19.97 103.42 13.5 106.64 13.5 106.64 14.5 105.19 14.5 107.3 18.03 109.42 14.5 107.97 14.5 107.97 13.5 111.19 13.5 107.3 19.97"/><line class="cls-1" x1="127.3" x2="127.3" y2="15"/><rect class="cls-1" x="126.8" width="1" height="15"/><polyline class="cls-1" points="126.64 14 124.3 14 127.3 19 130.3 14 127.97 14"/><polygon class="cls-1" points="127.3 19.97 123.42 13.5 126.64 13.5 126.64 14.5 125.19 14.5 127.3 18.03 129.42 14.5 127.97 14.5 127.97 13.5 131.19 13.5 127.3 19.97"/><path class="cls-41" d="M95.57,43.76A4.87,4.87,0,0,1,97,44a40,40,0,0,1,5.71-5.25,4.73,4.73,0,0,1,.12-2.69,36,36,0,0,0-7.53-4.14,23.07,23.07,0,0,0-6.45,6,35.82,35.82,0,0,0,4.59,6.39A4.86,4.86,0,0,1,95.57,43.76Zm-4.89,4.9a4.81,4.81,0,0,1,.4-1.94,37.71,37.71,0,0,1-4.24-5.57,23,23,0,0,0,.78,22.09,39.11,39.11,0,0,1,4.06-11.63A4.82,4.82,0,0,1,90.68,48.66Zm16.79-16A4.84,4.84,0,0,1,110.81,34a39.25,39.25,0,0,1,8-2.48A23,23,0,0,0,99.3,30,39.07,39.07,0,0,1,105,33.38,4.88,4.88,0,0,1,107.47,32.7Zm7.32,23a4.89,4.89,0,0,1,1.27-1.64,35.67,35.67,0,0,0-6.68-12,4.83,4.83,0,0,1-1.91.39,4.89,4.89,0,0,1-2.84-.92,36.79,36.79,0,0,0-4.91,4.51,4.83,4.83,0,0,1,.74,2.58,5,5,0,0,1-.22,1.46A35.53,35.53,0,0,0,114.79,55.75Zm6.35,6.6c.07.93.1,1.86.1,2.81a39.67,39.67,0,0,1-.3,4.9,23,23,0,0,0,8.36-11.6,39,39,0,0,1-5.45.92A4.86,4.86,0,0,1,121.14,62.35ZM113.65,59a39.08,39.08,0,0,1-15.53-6.21,4.89,4.89,0,0,1-2.55.72,5.47,5.47,0,0,1-1-.1,35.34,35.34,0,0,0-4,13.71,23,23,0,0,0,7.86,5.51A39.16,39.16,0,0,1,113.65,59Zm9.18-24.61a35.73,35.73,0,0,0-10.49,2.67,4,4,0,0,1,0,.49,5,5,0,0,1-.5,2.15A39.47,39.47,0,0,1,119.29,53a4.9,4.9,0,0,1,4.42,3,36.08,36.08,0,0,0,6.45-1.26,23,23,0,0,0-7.33-20.27Zm-6.72,27.22A35.77,35.77,0,0,0,101.8,73.79a23,23,0,0,0,15.29-1.46,35.37,35.37,0,0,0,.73-7.17c0-.89,0-1.77-.11-2.64A5,5,0,0,1,116.11,61.65Z"/><path class="cls-41" d="M71.36,84.11a2.83,2.83,0,0,1-.9,2.25,3.81,3.81,0,0,1-2.57.78H67v3.49H65.53V81.28h2.54a3.66,3.66,0,0,1,2.47.72A2.64,2.64,0,0,1,71.36,84.11ZM67,85.85h.77a2.6,2.6,0,0,0,1.62-.41,1.52,1.52,0,0,0,.52-1.28,1.48,1.48,0,0,0-.46-1.2,2.17,2.17,0,0,0-1.45-.4H67Z"/><path class="cls-41" d="M76.35,83.43a2.75,2.75,0,0,1,.7.07l-.14,1.4a2.57,2.57,0,0,0-.62-.08,1.77,1.77,0,0,0-1.38.59,2.21,2.21,0,0,0-.53,1.53v3.69H73V83.56h1.11l.18,1.25h.07a3,3,0,0,1,.87-1A2,2,0,0,1,76.35,83.43Z"/><path class="cls-41" d="M81.19,90.76a3.14,3.14,0,0,1-2.43-1,3.81,3.81,0,0,1-.87-2.65,4.19,4.19,0,0,1,.81-2.73,2.73,2.73,0,0,1,2.23-1,2.7,2.7,0,0,1,2.09.85,3.38,3.38,0,0,1,.76,2.34v.82H79.34A2.42,2.42,0,0,0,79.87,89a1.76,1.76,0,0,0,1.39.55,5.47,5.47,0,0,0,1.1-.11,6.13,6.13,0,0,0,1.09-.4v1.22a3.88,3.88,0,0,1-1,.37A5.48,5.48,0,0,1,81.19,90.76Zm-.26-6.19a1.38,1.38,0,0,0-1.08.45,2.27,2.27,0,0,0-.48,1.33h3A2,2,0,0,0,82,85,1.31,1.31,0,0,0,80.93,84.57Z"/><path class="cls-41" d="M91,90.63H89.58V86.27a2.1,2.1,0,0,0-.29-1.21,1.05,1.05,0,0,0-.91-.4,1.35,1.35,0,0,0-1.2.57,3.5,3.5,0,0,0-.38,1.88v3.52H85.39V83.56h1.1l.2.93h.08a1.83,1.83,0,0,1,.8-.78,2.4,2.4,0,0,1,1.16-.28,2,2,0,0,1,2,1.11h.1a2,2,0,0,1,.83-.81,2.49,2.49,0,0,1,1.23-.3,2.17,2.17,0,0,1,1.73.64,2.93,2.93,0,0,1,.55,2v4.61H93.79V86.27a2,2,0,0,0-.3-1.21,1,1,0,0,0-.9-.4,1.36,1.36,0,0,0-1.21.55A2.9,2.9,0,0,0,91,86.89Z"/><path class="cls-41" d="M97.09,81.69a.85.85,0,0,1,.21-.62.76.76,0,0,1,.59-.22.75.75,0,0,1,.58.22,1,1,0,0,1,0,1.22.75.75,0,0,1-.58.22.76.76,0,0,1-.59-.22A.84.84,0,0,1,97.09,81.69Zm1.5,8.94H97.17V83.56h1.42Z"/><path class="cls-41" d="M105.31,90.63l-.2-.92H105a2,2,0,0,1-.83.77,2.68,2.68,0,0,1-1.25.28,2.33,2.33,0,0,1-1.8-.64,2.73,2.73,0,0,1-.6-1.94V83.56H102v4.36a2,2,0,0,0,.31,1.22,1.17,1.17,0,0,0,1,.41,1.52,1.52,0,0,0,1.31-.57,3.27,3.27,0,0,0,.42-1.9V83.56h1.42v7.07Z"/><path class="cls-41" d="M114.05,90.63h-1.42V86.27a2.1,2.1,0,0,0-.29-1.21,1.05,1.05,0,0,0-.91-.4,1.35,1.35,0,0,0-1.2.57,3.5,3.5,0,0,0-.38,1.88v3.52h-1.41V83.56h1.1l.2.93h.07a1.91,1.91,0,0,1,.81-.78,2.37,2.37,0,0,1,1.16-.28,2,2,0,0,1,2,1.11h.1a2,2,0,0,1,.83-.81,2.49,2.49,0,0,1,1.23-.3,2.17,2.17,0,0,1,1.73.64,2.93,2.93,0,0,1,.55,2v4.61h-1.42V86.27a2,2,0,0,0-.29-1.21,1,1,0,0,0-.9-.4,1.35,1.35,0,0,0-1.21.55,2.9,2.9,0,0,0-.38,1.68Z"/><path class="cls-41" d="M127.32,82.46a2.31,2.31,0,0,0-1.95.93,5.17,5.17,0,0,0,0,5.18,2.37,2.37,0,0,0,2,.89,4.83,4.83,0,0,0,1.08-.12c.35-.08.71-.18,1.09-.3v1.31a6.38,6.38,0,0,1-2.34.41,3.64,3.64,0,0,1-3-1.24,5.44,5.44,0,0,1-1-3.56,6.14,6.14,0,0,1,.5-2.55,3.76,3.76,0,0,1,1.46-1.68,4.16,4.16,0,0,1,2.23-.58,5.26,5.26,0,0,1,2.49.6L129.3,83a6.16,6.16,0,0,0-.94-.39A3.29,3.29,0,0,0,127.32,82.46Z"/><path class="cls-41" d="M138.55,85.87a4.83,4.83,0,0,1-1.22,3.54,4.64,4.64,0,0,1-3.48,1.22h-2.46V81.28h2.72a4.32,4.32,0,0,1,3.27,1.21A4.63,4.63,0,0,1,138.55,85.87Zm-1.52,0q0-3.36-3-3.36h-1.24v6.79h1Q137,89.35,137,85.92Z"/><path class="cls-41" d="M147.77,90.63H146l-4.32-7.45h-.05l0,.42c.05.79.08,1.52.08,2.17v4.86h-1.3V81.28h1.74l4.32,7.42h0c0-.1,0-.46-.05-1.07s0-1.1,0-1.45v-4.9h1.32Z"/><rect class="cls-41" x="106.23" y="100.84" width="1" height="15.83"/><polyline class="cls-41" points="106.07 115.17 103.73 115.17 106.73 120.17 109.73 115.17 107.4 115.17"/></g></g></svg>